<svg width="96" height="64" viewBox="0 0 96 64" fill="none" xmlns="http://www.w3.org/2000/svg">
    <path d="M96 0H0V64H96V0Z" fill="white"/>
    <path d="M16.014 45.1661C15.7298 45.1661 15.4994 45.072 15.3228 44.8838C15.1461 44.6957 15.0578 44.4499 15.0578 44.1466V44.0141C15.0578 43.9757 15.077 43.9565 15.1154 43.9565H15.3977C15.4361 43.9565 15.4553 43.9757 15.4553 44.0141V44.1293C15.4553 44.3328 15.5071 44.4979 15.6108 44.6246C15.7145 44.7475 15.8489 44.809 16.014 44.809C16.1753 44.809 16.3097 44.7494 16.4172 44.6304C16.5247 44.5114 16.5785 44.3539 16.5785 44.1581C16.5785 44.0275 16.5516 43.9162 16.4978 43.824C16.4479 43.728 16.3807 43.6454 16.2962 43.5763C16.2156 43.5034 16.0793 43.3939 15.8873 43.248C15.6953 43.1059 15.5436 42.985 15.4322 42.8851C15.3209 42.7814 15.2287 42.6586 15.1557 42.5165C15.0866 42.3744 15.0521 42.2074 15.0521 42.0154C15.0521 41.7158 15.1385 41.4797 15.3113 41.3069C15.4841 41.1302 15.7087 41.0419 15.9852 41.0419C16.277 41.0419 16.5093 41.1379 16.6821 41.3299C16.8588 41.5181 16.9471 41.7696 16.9471 42.0845V42.2285C16.9471 42.2669 16.9279 42.2861 16.8895 42.2861H16.6015C16.5631 42.2861 16.5439 42.2669 16.5439 42.2285V42.0787C16.5439 41.8752 16.4921 41.712 16.3884 41.5891C16.2885 41.4624 16.1541 41.399 15.9852 41.399C15.8316 41.399 15.7049 41.4547 15.605 41.5661C15.5052 41.6736 15.4553 41.8272 15.4553 42.0269C15.4553 42.1459 15.4764 42.2515 15.5186 42.3437C15.5647 42.432 15.6319 42.5165 15.7202 42.5971C15.8085 42.6778 15.9391 42.7834 16.1119 42.9139C16.3423 43.0829 16.5132 43.2211 16.6245 43.3286C16.7397 43.4323 16.8281 43.5475 16.8895 43.6742C16.9509 43.7971 16.9817 43.9469 16.9817 44.1235C16.9817 44.4384 16.8914 44.6918 16.7109 44.8838C16.5305 45.072 16.2981 45.1661 16.014 45.1661ZM23.1853 45.1661C22.8896 45.1661 22.6515 45.0643 22.471 44.8608C22.2906 44.6573 22.2003 44.3885 22.2003 44.0544V41.1456C22.2003 41.1072 22.2195 41.088 22.2579 41.088H22.5517C22.5901 41.088 22.6093 41.1072 22.6093 41.1456V44.1005C22.6093 44.3117 22.6611 44.4826 22.7648 44.6131C22.8723 44.7437 23.0125 44.809 23.1853 44.809C23.3619 44.809 23.504 44.7437 23.6115 44.6131C23.719 44.4826 23.7728 44.3117 23.7728 44.1005V41.1456C23.7728 41.1072 23.792 41.088 23.8304 41.088H24.1242C24.1626 41.088 24.1818 41.1072 24.1818 41.1456V44.0544C24.1818 44.3885 24.0896 44.6573 23.9053 44.8608C23.7248 45.0643 23.4848 45.1661 23.1853 45.1661ZM31.1163 41.1456C31.1163 41.1072 31.1355 41.088 31.1739 41.088H31.4619C31.5003 41.088 31.5195 41.1072 31.5195 41.1456V45.0624C31.5195 45.1008 31.5003 45.12 31.4619 45.12H31.122C31.0913 45.12 31.0702 45.1046 31.0587 45.0739L29.9355 42.096C29.9316 42.0845 29.9259 42.0806 29.9182 42.0845C29.9105 42.0845 29.9067 42.0902 29.9067 42.1018L29.9124 45.0624C29.9124 45.1008 29.8932 45.12 29.8548 45.12H29.5611C29.5227 45.12 29.5035 45.1008 29.5035 45.0624V41.1456C29.5035 41.1072 29.5227 41.088 29.5611 41.088H29.8952C29.9259 41.088 29.947 41.1034 29.9585 41.1341L31.0875 44.1178C31.0913 44.1293 31.0971 44.135 31.1048 44.135C31.1124 44.1312 31.1163 44.1235 31.1163 44.112V41.1456ZM37.8333 45.1661C37.5376 45.1661 37.3015 45.0797 37.1248 44.9069C36.9482 44.7302 36.8599 44.496 36.8599 44.2042V42.0038C36.8599 41.712 36.9482 41.4797 37.1248 41.3069C37.3015 41.1302 37.5376 41.0419 37.8333 41.0419C38.129 41.0419 38.3651 41.1302 38.5418 41.3069C38.7223 41.4835 38.8125 41.7178 38.8125 42.0096V42.2573C38.8125 42.2957 38.7933 42.3149 38.7549 42.3149H38.4611C38.4227 42.3149 38.4035 42.2957 38.4035 42.2573V41.9981C38.4035 41.8176 38.3517 41.6736 38.248 41.5661C38.1443 41.4547 38.0061 41.399 37.8333 41.399C37.6643 41.399 37.5261 41.4547 37.4186 41.5661C37.3149 41.6774 37.2631 41.8214 37.2631 41.9981V44.2099C37.2631 44.3866 37.3149 44.5306 37.4186 44.6419C37.5261 44.7533 37.6643 44.809 37.8333 44.809C38.0061 44.809 38.1443 44.7552 38.248 44.6477C38.3517 44.5363 38.4035 44.3904 38.4035 44.2099V43.4726C38.4035 43.4573 38.3959 43.4496 38.3805 43.4496H37.8851C37.8467 43.4496 37.8275 43.4304 37.8275 43.392V43.1501C37.8275 43.1117 37.8467 43.0925 37.8851 43.0925H38.7549C38.7933 43.0925 38.8125 43.1117 38.8125 43.1501V44.2042C38.8125 44.496 38.7223 44.7302 38.5418 44.9069C38.3651 45.0797 38.129 45.1661 37.8333 45.1661ZM44.2163 45.12C44.1779 45.12 44.1587 45.1008 44.1587 45.0624V41.1456C44.1587 41.1072 44.1779 41.088 44.2163 41.088H44.5101C44.5485 41.088 44.5677 41.1072 44.5677 41.1456V44.7398C44.5677 44.7552 44.5754 44.7629 44.5907 44.7629H45.9098C45.9482 44.7629 45.9674 44.7821 45.9674 44.8205V45.0624C45.9674 45.1008 45.9482 45.12 45.9098 45.12H44.2163ZM52.8189 45.12C52.7843 45.12 52.7632 45.1027 52.7555 45.0682L52.6115 44.3539C52.6115 44.3462 52.6077 44.3405 52.6 44.3366C52.5962 44.3328 52.5904 44.3309 52.5827 44.3309H51.5402C51.5325 44.3309 51.5248 44.3328 51.5171 44.3366C51.5133 44.3405 51.5114 44.3462 51.5114 44.3539L51.3674 45.0682C51.3635 45.1027 51.3424 45.12 51.304 45.12H51.0103C50.9911 45.12 50.9757 45.1142 50.9642 45.1027C50.9565 45.0912 50.9546 45.0758 50.9584 45.0566L51.8224 41.1398C51.8301 41.1053 51.8512 41.088 51.8858 41.088H52.2314C52.2698 41.088 52.2909 41.1053 52.2948 41.1398L53.1703 45.0566V45.0682C53.1703 45.1027 53.153 45.12 53.1184 45.12H52.8189ZM51.5863 43.9738C51.5863 43.9891 51.592 43.9968 51.6035 43.9968H52.5136C52.5251 43.9968 52.5309 43.9891 52.5309 43.9738L52.0701 41.7101C52.0663 41.6986 52.0624 41.6928 52.0586 41.6928C52.0547 41.6928 52.0509 41.6986 52.0471 41.7101L51.5863 43.9738ZM58.9395 45.1661C58.6554 45.1661 58.425 45.072 58.2483 44.8838C58.0717 44.6957 57.9834 44.4499 57.9834 44.1466V44.0141C57.9834 43.9757 58.0026 43.9565 58.041 43.9565H58.3232C58.3616 43.9565 58.3808 43.9757 58.3808 44.0141V44.1293C58.3808 44.3328 58.4327 44.4979 58.5363 44.6246C58.64 44.7475 58.7744 44.809 58.9395 44.809C59.1008 44.809 59.2352 44.7494 59.3427 44.6304C59.4503 44.5114 59.504 44.3539 59.504 44.1581C59.504 44.0275 59.4771 43.9162 59.4234 43.824C59.3735 43.728 59.3063 43.6454 59.2218 43.5763C59.1411 43.5034 59.0048 43.3939 58.8128 43.248C58.6208 43.1059 58.4691 42.985 58.3578 42.8851C58.2464 42.7814 58.1543 42.6586 58.0813 42.5165C58.0122 42.3744 57.9776 42.2074 57.9776 42.0154C57.9776 41.7158 58.064 41.4797 58.2368 41.3069C58.4096 41.1302 58.6343 41.0419 58.9107 41.0419C59.2026 41.0419 59.4349 41.1379 59.6077 41.3299C59.7843 41.5181 59.8727 41.7696 59.8727 42.0845V42.2285C59.8727 42.2669 59.8535 42.2861 59.8151 42.2861H59.5271C59.4887 42.2861 59.4695 42.2669 59.4695 42.2285V42.0787C59.4695 41.8752 59.4176 41.712 59.3139 41.5891C59.2141 41.4624 59.0797 41.399 58.9107 41.399C58.7571 41.399 58.6304 41.4547 58.5306 41.5661C58.4307 41.6736 58.3808 41.8272 58.3808 42.0269C58.3808 42.1459 58.4019 42.2515 58.4442 42.3437C58.4903 42.432 58.5575 42.5165 58.6458 42.5971C58.7341 42.6778 58.8647 42.7834 59.0375 42.9139C59.2679 43.0829 59.4387 43.2211 59.5501 43.3286C59.6653 43.4323 59.7536 43.5475 59.8151 43.6742C59.8765 43.7971 59.9072 43.9469 59.9072 44.1235C59.9072 44.4384 59.817 44.6918 59.6365 44.8838C59.456 45.072 59.2237 45.1661 58.9395 45.1661ZM65.9437 45.1661C65.6595 45.1661 65.4291 45.072 65.2525 44.8838C65.0759 44.6957 64.9875 44.4499 64.9875 44.1466V44.0141C64.9875 43.9757 65.0067 43.9565 65.0451 43.9565H65.3274C65.3658 43.9565 65.385 43.9757 65.385 44.0141V44.1293C65.385 44.3328 65.4368 44.4979 65.5405 44.6246C65.6442 44.7475 65.7786 44.809 65.9437 44.809C66.105 44.809 66.2394 44.7494 66.3469 44.6304C66.4544 44.5114 66.5082 44.3539 66.5082 44.1581C66.5082 44.0275 66.4813 43.9162 66.4275 43.824C66.3776 43.728 66.3104 43.6454 66.2259 43.5763C66.1453 43.5034 66.009 43.3939 65.817 43.248C65.625 43.1059 65.4733 42.985 65.3619 42.8851C65.2506 42.7814 65.1584 42.6586 65.0855 42.5165C65.0163 42.3744 64.9818 42.2074 64.9818 42.0154C64.9818 41.7158 65.0682 41.4797 65.241 41.3069C65.4138 41.1302 65.6384 41.0419 65.9149 41.0419C66.2067 41.0419 66.4391 41.1379 66.6119 41.3299C66.7885 41.5181 66.8768 41.7696 66.8768 42.0845V42.2285C66.8768 42.2669 66.8576 42.2861 66.8192 42.2861H66.5312C66.4928 42.2861 66.4736 42.2669 66.4736 42.2285V42.0787C66.4736 41.8752 66.4218 41.712 66.3181 41.5891C66.2183 41.4624 66.0839 41.399 65.9149 41.399C65.7613 41.399 65.6346 41.4547 65.5347 41.5661C65.4349 41.6736 65.385 41.8272 65.385 42.0269C65.385 42.1459 65.4061 42.2515 65.4483 42.3437C65.4944 42.432 65.5616 42.5165 65.6499 42.5971C65.7383 42.6778 65.8688 42.7834 66.0416 42.9139C66.272 43.0829 66.4429 43.2211 66.5543 43.3286C66.6695 43.4323 66.7578 43.5475 66.8192 43.6742C66.8807 43.7971 66.9114 43.9469 66.9114 44.1235C66.9114 44.4384 66.8211 44.6918 66.6407 44.8838C66.4602 45.072 66.2279 45.1661 65.9437 45.1661ZM73.9511 41.3875C73.9511 41.4259 73.9319 41.4451 73.8935 41.4451H72.5571C72.5418 41.4451 72.5341 41.4528 72.5341 41.4682V42.8966C72.5341 42.912 72.5418 42.9197 72.5571 42.9197H73.3981C73.4365 42.9197 73.4557 42.9389 73.4557 42.9773V43.225C73.4557 43.2634 73.4365 43.2826 73.3981 43.2826H72.5571C72.5418 43.2826 72.5341 43.2902 72.5341 43.3056V44.7398C72.5341 44.7552 72.5418 44.7629 72.5571 44.7629H73.8935C73.9319 44.7629 73.9511 44.7821 73.9511 44.8205V45.0624C73.9511 45.1008 73.9319 45.12 73.8935 45.12H72.1827C72.1443 45.12 72.1251 45.1008 72.1251 45.0624V41.1456C72.1251 41.1072 72.1443 41.088 72.1827 41.088H73.8935C73.9319 41.088 73.9511 41.1072 73.9511 41.1456V41.3875ZM79.9859 45.1661C79.7018 45.1661 79.4714 45.072 79.2947 44.8838C79.1181 44.6957 79.0298 44.4499 79.0298 44.1466V44.0141C79.0298 43.9757 79.049 43.9565 79.0874 43.9565H79.3696C79.408 43.9565 79.4272 43.9757 79.4272 44.0141V44.1293C79.4272 44.3328 79.4791 44.4979 79.5827 44.6246C79.6864 44.7475 79.8208 44.809 79.9859 44.809C80.1472 44.809 80.2816 44.7494 80.3891 44.6304C80.4967 44.5114 80.5504 44.3539 80.5504 44.1581C80.5504 44.0275 80.5235 43.9162 80.4698 43.824C80.4199 43.728 80.3527 43.6454 80.2682 43.5763C80.1875 43.5034 80.0512 43.3939 79.8592 43.248C79.6672 43.1059 79.5155 42.985 79.4042 42.8851C79.2928 42.7814 79.2007 42.6586 79.1277 42.5165C79.0586 42.3744 79.024 42.2074 79.024 42.0154C79.024 41.7158 79.1104 41.4797 79.2832 41.3069C79.456 41.1302 79.6807 41.0419 79.9571 41.0419C80.249 41.0419 80.4813 41.1379 80.6541 41.3299C80.8307 41.5181 80.9191 41.7696 80.9191 42.0845V42.2285C80.9191 42.2669 80.8999 42.2861 80.8615 42.2861H80.5735C80.5351 42.2861 80.5159 42.2669 80.5159 42.2285V42.0787C80.5159 41.8752 80.464 41.712 80.3603 41.5891C80.2605 41.4624 80.1261 41.399 79.9571 41.399C79.8035 41.399 79.6768 41.4547 79.577 41.5661C79.4771 41.6736 79.4272 41.8272 79.4272 42.0269C79.4272 42.1459 79.4483 42.2515 79.4906 42.3437C79.5367 42.432 79.6039 42.5165 79.6922 42.5971C79.7805 42.6778 79.9111 42.7834 80.0839 42.9139C80.3143 43.0829 80.4851 43.2211 80.5965 43.3286C80.7117 43.4323 80.8 43.5475 80.8615 43.6742C80.9229 43.7971 80.9536 43.9469 80.9536 44.1235C80.9536 44.4384 80.8634 44.6918 80.6829 44.8838C80.5024 45.072 80.2701 45.1661 79.9859 45.1661Z" fill="#232323"/>
    <path d="M17.5124 20.2112C17.5636 20.2752 17.6404 20.3072 17.7428 20.3072H19.8932C20.0468 20.3072 20.162 20.2496 20.2388 20.1344L21.5828 18.3296C21.6212 18.2656 21.6404 18.208 21.6404 18.1568C21.6404 18.0416 21.5636 17.984 21.41 17.984H18.818C18.6516 17.984 18.5364 18.0544 18.4724 18.1952L17.5316 19.9616C17.4804 20.0512 17.474 20.1344 17.5124 20.2112Z" fill="#232323"/>
    <path d="M28.1318 34.4192C28.9382 34.8288 29.8662 35.0336 30.9158 35.0336C31.9654 35.0336 32.887 34.8416 33.6806 34.4576C34.487 34.0608 35.1078 33.5104 35.543 32.8064C35.991 32.1024 36.215 31.2896 36.215 30.368C36.215 30.2528 36.119 30.1888 35.927 30.176L32.8934 30.0224C32.8038 30.0096 32.7334 30.0224 32.6822 30.0608C32.631 30.0992 32.6054 30.1568 32.6054 30.2336C32.6054 30.7456 32.4518 31.1616 32.1446 31.4816C31.8374 31.7888 31.4278 31.9424 30.9158 31.9424C30.4038 31.9424 29.9942 31.7888 29.687 31.4816C29.3798 31.1616 29.2262 30.7456 29.2262 30.2336V26.1056C29.2262 25.5808 29.3798 25.1648 29.687 24.8576C29.9942 24.5376 30.4038 24.3776 30.9158 24.3776C31.4278 24.3776 31.8374 24.5376 32.1446 24.8576C32.4518 25.1648 32.6054 25.5808 32.6054 26.1056C32.6054 26.2464 32.6822 26.3168 32.8358 26.3168H32.8934L35.927 26.1248C36.119 26.0992 36.215 26.0288 36.215 25.9136C36.215 24.992 35.991 24.1856 35.543 23.4944C35.1078 22.7904 34.487 22.2464 33.6806 21.8624C32.887 21.4784 31.9654 21.2864 30.9158 21.2864C29.8662 21.2864 28.9382 21.4912 28.1318 21.9008C27.3382 22.3104 26.7174 22.8864 26.2694 23.6288C25.8342 24.3712 25.6166 25.2288 25.6166 26.2016V30.08C25.6166 31.0656 25.8342 31.936 26.2694 32.6912C26.7174 33.4336 27.3382 34.0096 28.1318 34.4192Z" fill="#232323"/>
    <path d="M39.9084 34.4384C40.7148 34.8352 41.6365 35.0336 42.6733 35.0336C43.7101 35.0336 44.6252 34.8352 45.4189 34.4384C46.2125 34.0416 46.8269 33.4784 47.2621 32.7488C47.6973 32.0192 47.9148 31.1744 47.9148 30.2144V21.728C47.9148 21.6384 47.8893 21.568 47.8381 21.5168C47.7868 21.4656 47.7164 21.44 47.6269 21.44H44.5933C44.5037 21.44 44.4333 21.4656 44.382 21.5168C44.3308 21.568 44.3052 21.6384 44.3052 21.728V30.2144C44.3052 30.7264 44.1517 31.1424 43.8445 31.4624C43.5501 31.7824 43.1597 31.9424 42.6733 31.9424C42.1741 31.9424 41.7709 31.7888 41.4637 31.4816C41.1693 31.1616 41.0221 30.7392 41.0221 30.2144V21.728C41.0221 21.6384 40.9965 21.568 40.9453 21.5168C40.894 21.4656 40.8236 21.44 40.734 21.44H37.7005C37.6109 21.44 37.5405 21.4656 37.4893 21.5168C37.438 21.568 37.4125 21.6384 37.4125 21.728V30.2144C37.4125 31.1744 37.6301 32.0192 38.0653 32.7488C38.5005 33.4784 39.1148 34.0416 39.9084 34.4384Z" fill="#232323"/>
    <path d="M49.4163 34.8032C49.4675 34.8544 49.5379 34.88 49.6275 34.88H58.9779C59.0675 34.88 59.1379 34.8544 59.1891 34.8032C59.2403 34.752 59.2659 34.6816 59.2659 34.592V32.0768C59.2659 31.9872 59.2403 31.9168 59.1891 31.8656C59.1379 31.8144 59.0675 31.7888 58.9779 31.7888H53.0451C52.9811 31.7888 52.9491 31.7568 52.9491 31.6928V21.728C52.9491 21.6384 52.9235 21.568 52.8723 21.5168C52.8211 21.4656 52.7507 21.44 52.6611 21.44H49.6275C49.5379 21.44 49.4675 21.4656 49.4163 21.5168C49.3651 21.568 49.3395 21.6384 49.3395 21.728V34.592C49.3395 34.6816 49.3651 34.752 49.4163 34.8032Z" fill="#232323"/>
    <path d="M74.3488 34.5152C75.1552 34.8608 76.096 35.0336 77.1712 35.0336C78.208 35.0336 79.1168 34.8672 79.8976 34.5344C80.6784 34.2016 81.2864 33.728 81.7216 33.1136C82.1568 32.4864 82.3744 31.744 82.3744 30.8864C82.3744 30.0032 82.1056 29.2544 81.568 28.64C81.0304 28.0128 80.3584 27.584 79.552 27.3536C78.7584 27.1104 78.3104 26.9696 78.208 26.9312C77.4656 26.7008 76.9152 26.5152 76.5568 26.3744C76.1984 26.2208 75.9296 26.0672 75.7504 25.9136C75.584 25.7472 75.5008 25.5488 75.5008 25.3184C75.5008 25.024 75.616 24.7936 75.8464 24.6272C76.0896 24.4608 76.416 24.3776 76.8256 24.3776C77.4144 24.3776 77.8816 24.5376 78.2272 24.8576C78.5728 25.1648 78.7456 25.5104 78.7456 25.8944V25.9136C78.7456 26.0032 78.7712 26.0736 78.8224 26.1248C78.8736 26.176 78.944 26.2016 79.0336 26.2016H82.0096C82.0992 26.2016 82.1696 26.176 82.2208 26.1248C82.272 26.0736 82.2976 26.0032 82.2976 25.9136V25.7408C82.2976 24.8704 82.0608 24.096 81.5872 23.4176C81.1264 22.7392 80.4864 22.2144 79.6672 21.8432C78.8608 21.472 77.9584 21.2864 76.96 21.2864C76.0128 21.2864 75.1552 21.4528 74.3872 21.7856C73.632 22.1184 73.0368 22.5984 72.6016 23.2256C72.1664 23.84 71.9488 24.5504 71.9488 25.3568C71.9488 26.5728 72.3776 27.5008 73.2352 28.1408C74.0928 28.7808 75.1552 29.2928 76.4224 29.6768L76.9792 29.8304C77.6576 30.0352 78.1248 30.208 78.3808 30.3488C78.6368 30.4896 78.7648 30.7008 78.7648 30.9824C78.7648 31.2256 78.6624 31.4496 78.4576 31.6544C78.2528 31.8464 77.9136 31.9424 77.44 31.9424C76.8128 31.9424 76.3072 31.808 75.9232 31.5392C75.552 31.2576 75.3664 30.9376 75.3664 30.5792V30.464C75.3664 30.3744 75.3408 30.304 75.2896 30.2528C75.2384 30.2016 75.168 30.176 75.0784 30.176H72.1024C72.0128 30.176 71.9424 30.2016 71.8912 30.2528C71.84 30.304 71.8144 30.3744 71.8144 30.464V30.7328C71.8144 31.5904 72.032 32.3456 72.4672 32.9984C72.9152 33.6512 73.5424 34.1568 74.3488 34.5152Z" fill="#232323"/>
    <path fill-rule="evenodd" clip-rule="evenodd" d="M19.0676 35.1104C18.0052 35.1104 17.0644 34.8992 16.2452 34.4768C15.4388 34.0416 14.8116 33.44 14.3636 32.672C13.9156 31.8912 13.6916 30.9888 13.6916 29.9648V26.3552C13.6916 25.3568 13.9156 24.4736 14.3636 23.7056C14.8116 22.9376 15.4388 22.3424 16.2452 21.92C17.0644 21.4976 18.0052 21.2864 19.0676 21.2864C20.1428 21.2864 21.0836 21.4976 21.89 21.92C22.7092 22.3424 23.3428 22.9376 23.7908 23.7056C24.2388 24.4736 24.4628 25.3568 24.4628 26.3552V29.9648C24.4628 30.9888 24.2388 31.8912 23.7908 32.672C23.3428 33.44 22.7092 34.0416 21.89 34.4768C21.0836 34.8992 20.1428 35.1104 19.0676 35.1104ZM20.354 31.5008C20.034 31.8464 19.6052 32.0192 19.0676 32.0192C18.5428 32.0192 18.114 31.8464 17.7812 31.5008C17.4612 31.1424 17.3012 30.6688 17.3012 30.08V26.3168C17.3012 25.728 17.4612 25.2608 17.7812 24.9152C18.114 24.5568 18.5428 24.3776 19.0676 24.3776C19.6052 24.3776 20.034 24.5568 20.354 24.9152C20.6868 25.2608 20.8532 25.728 20.8532 26.3168V30.08C20.8532 30.6688 20.6868 31.1424 20.354 31.5008Z" fill="#232323"/>
    <path fill-rule="evenodd" clip-rule="evenodd" d="M65.3612 35.1104C64.2988 35.1104 63.358 34.8992 62.5388 34.4768C61.7324 34.0416 61.1052 33.44 60.6572 32.672C60.2093 31.8912 59.9852 30.9888 59.9852 29.9648V26.3552C59.9852 25.3568 60.2093 24.4736 60.6572 23.7056C61.1052 22.9376 61.7324 22.3424 62.5388 21.92C63.358 21.4976 64.2988 21.2864 65.3612 21.2864C66.4364 21.2864 67.3772 21.4976 68.1836 21.92C69.0028 22.3424 69.6365 22.9376 70.0844 23.7056C70.5324 24.4736 70.7564 25.3568 70.7564 26.3552V29.9648C70.7564 30.9888 70.5324 31.8912 70.0844 32.672C69.6365 33.44 69.0028 34.0416 68.1836 34.4768C67.3772 34.8992 66.4364 35.1104 65.3612 35.1104ZM66.6476 31.5008C66.3276 31.8464 65.8988 32.0192 65.3612 32.0192C64.8364 32.0192 64.4076 31.8464 64.0748 31.5008C63.7548 31.1424 63.5948 30.6688 63.5948 30.08V26.3168C63.5948 25.728 63.7548 25.2608 64.0748 24.9152C64.4076 24.5568 64.8364 24.3776 65.3612 24.3776C65.8988 24.3776 66.3276 24.5568 66.6476 24.9152C66.9804 25.2608 67.1468 25.728 67.1468 26.3168V30.08C67.1468 30.6688 66.9804 31.1424 66.6476 31.5008Z" fill="#232323"/>
  </svg>