<svg width="300" height="200" viewBox="0 0 300 200" fill="none" xmlns="http://www.w3.org/2000/svg">
<path d="M300 0H0V200H300V0Z" fill="white"/>
<path d="M50.0436 141.144C49.1556 141.144 48.4356 140.85 47.8836 140.262C47.3316 139.674 47.0556 138.906 47.0556 137.958V137.544C47.0556 137.424 47.1156 137.364 47.2356 137.364H48.1176C48.2376 137.364 48.2976 137.424 48.2976 137.544V137.904C48.2976 138.54 48.4596 139.056 48.7836 139.452C49.1076 139.836 49.5276 140.028 50.0436 140.028C50.5476 140.028 50.9676 139.842 51.3036 139.47C51.6396 139.098 51.8076 138.606 51.8076 137.994C51.8076 137.586 51.7236 137.238 51.5556 136.95C51.3996 136.65 51.1896 136.392 50.9256 136.176C50.6736 135.948 50.2476 135.606 49.6476 135.15C49.0476 134.706 48.5736 134.328 48.2256 134.016C47.8776 133.692 47.5896 133.308 47.3616 132.864C47.1456 132.42 47.0376 131.898 47.0376 131.298C47.0376 130.362 47.3076 129.624 47.8476 129.084C48.3876 128.532 49.0896 128.256 49.9536 128.256C50.8656 128.256 51.5916 128.556 52.1316 129.156C52.6836 129.744 52.9596 130.53 52.9596 131.514V131.964C52.9596 132.084 52.8996 132.144 52.7796 132.144H51.8796C51.7596 132.144 51.6996 132.084 51.6996 131.964V131.496C51.6996 130.86 51.5376 130.35 51.2136 129.966C50.9016 129.57 50.4816 129.372 49.9536 129.372C49.4736 129.372 49.0776 129.546 48.7656 129.894C48.4536 130.23 48.2976 130.71 48.2976 131.334C48.2976 131.706 48.3636 132.036 48.4956 132.324C48.6396 132.6 48.8496 132.864 49.1256 133.116C49.4016 133.368 49.8096 133.698 50.3496 134.106C51.0696 134.634 51.6036 135.066 51.9516 135.402C52.3116 135.726 52.5876 136.086 52.7796 136.482C52.9716 136.866 53.0676 137.334 53.0676 137.886C53.0676 138.87 52.7856 139.662 52.2216 140.262C51.6576 140.85 50.9316 141.144 50.0436 141.144ZM72.4539 141.144C71.5299 141.144 70.7859 140.826 70.2219 140.19C69.6579 139.554 69.3759 138.714 69.3759 137.67V128.58C69.3759 128.46 69.4359 128.4 69.5559 128.4H70.4739C70.5939 128.4 70.6539 128.46 70.6539 128.58V137.814C70.6539 138.474 70.8159 139.008 71.1399 139.416C71.4759 139.824 71.9139 140.028 72.4539 140.028C73.0059 140.028 73.4499 139.824 73.7859 139.416C74.1219 139.008 74.2899 138.474 74.2899 137.814V128.58C74.2899 128.46 74.3499 128.4 74.4699 128.4H75.3879C75.5079 128.4 75.5679 128.46 75.5679 128.58V137.67C75.5679 138.714 75.2799 139.554 74.7039 140.19C74.1399 140.826 73.3899 141.144 72.4539 141.144ZM97.2383 128.58C97.2383 128.46 97.2983 128.4 97.4183 128.4H98.3183C98.4383 128.4 98.4983 128.46 98.4983 128.58V140.82C98.4983 140.94 98.4383 141 98.3183 141H97.2563C97.1603 141 97.0943 140.952 97.0583 140.856L93.5483 131.55C93.5363 131.514 93.5183 131.502 93.4943 131.514C93.4703 131.514 93.4583 131.532 93.4583 131.568L93.4763 140.82C93.4763 140.94 93.4163 141 93.2963 141H92.3783C92.2583 141 92.1983 140.94 92.1983 140.82V128.58C92.1983 128.46 92.2583 128.4 92.3783 128.4H93.4223C93.5183 128.4 93.5843 128.448 93.6203 128.544L97.1483 137.868C97.1603 137.904 97.1783 137.922 97.2023 137.922C97.2263 137.91 97.2383 137.886 97.2383 137.85V128.58ZM118.229 141.144C117.305 141.144 116.567 140.874 116.015 140.334C115.463 139.782 115.187 139.05 115.187 138.138V131.262C115.187 130.35 115.463 129.624 116.015 129.084C116.567 128.532 117.305 128.256 118.229 128.256C119.153 128.256 119.891 128.532 120.443 129.084C121.007 129.636 121.289 130.368 121.289 131.28V132.054C121.289 132.174 121.229 132.234 121.109 132.234H120.191C120.071 132.234 120.011 132.174 120.011 132.054V131.244C120.011 130.68 119.849 130.23 119.525 129.894C119.201 129.546 118.769 129.372 118.229 129.372C117.701 129.372 117.269 129.546 116.933 129.894C116.609 130.242 116.447 130.692 116.447 131.244V138.156C116.447 138.708 116.609 139.158 116.933 139.506C117.269 139.854 117.701 140.028 118.229 140.028C118.769 140.028 119.201 139.86 119.525 139.524C119.849 139.176 120.011 138.72 120.011 138.156V135.852C120.011 135.804 119.987 135.78 119.939 135.78H118.391C118.271 135.78 118.211 135.72 118.211 135.6V134.844C118.211 134.724 118.271 134.664 118.391 134.664H121.109C121.229 134.664 121.289 134.724 121.289 134.844V138.138C121.289 139.05 121.007 139.782 120.443 140.334C119.891 140.874 119.153 141.144 118.229 141.144ZM138.176 141C138.056 141 137.996 140.94 137.996 140.82V128.58C137.996 128.46 138.056 128.4 138.176 128.4H139.094C139.214 128.4 139.274 128.46 139.274 128.58V139.812C139.274 139.86 139.298 139.884 139.346 139.884H143.468C143.588 139.884 143.648 139.944 143.648 140.064V140.82C143.648 140.94 143.588 141 143.468 141H138.176ZM165.059 141C164.951 141 164.885 140.946 164.861 140.838L164.411 138.606C164.411 138.582 164.399 138.564 164.375 138.552C164.363 138.54 164.345 138.534 164.321 138.534H161.063C161.039 138.534 161.015 138.54 160.991 138.552C160.979 138.564 160.973 138.582 160.973 138.606L160.523 140.838C160.511 140.946 160.445 141 160.325 141H159.407C159.347 141 159.299 140.982 159.263 140.946C159.239 140.91 159.233 140.862 159.245 140.802L161.945 128.562C161.969 128.454 162.035 128.4 162.143 128.4H163.223C163.343 128.4 163.409 128.454 163.421 128.562L166.157 140.802V140.838C166.157 140.946 166.103 141 165.995 141H165.059ZM161.207 137.418C161.207 137.466 161.225 137.49 161.261 137.49H164.105C164.141 137.49 164.159 137.466 164.159 137.418L162.719 130.344C162.707 130.308 162.695 130.29 162.683 130.29C162.671 130.29 162.659 130.308 162.647 130.344L161.207 137.418ZM184.186 141.144C183.298 141.144 182.578 140.85 182.026 140.262C181.474 139.674 181.198 138.906 181.198 137.958V137.544C181.198 137.424 181.258 137.364 181.378 137.364H182.26C182.38 137.364 182.44 137.424 182.44 137.544V137.904C182.44 138.54 182.602 139.056 182.926 139.452C183.25 139.836 183.67 140.028 184.186 140.028C184.69 140.028 185.11 139.842 185.446 139.47C185.782 139.098 185.95 138.606 185.95 137.994C185.95 137.586 185.866 137.238 185.698 136.95C185.542 136.65 185.332 136.392 185.068 136.176C184.816 135.948 184.39 135.606 183.79 135.15C183.19 134.706 182.716 134.328 182.368 134.016C182.02 133.692 181.732 133.308 181.504 132.864C181.288 132.42 181.18 131.898 181.18 131.298C181.18 130.362 181.45 129.624 181.99 129.084C182.53 128.532 183.232 128.256 184.096 128.256C185.008 128.256 185.734 128.556 186.274 129.156C186.826 129.744 187.102 130.53 187.102 131.514V131.964C187.102 132.084 187.042 132.144 186.922 132.144H186.022C185.902 132.144 185.842 132.084 185.842 131.964V131.496C185.842 130.86 185.68 130.35 185.356 129.966C185.044 129.57 184.624 129.372 184.096 129.372C183.616 129.372 183.22 129.546 182.908 129.894C182.596 130.23 182.44 130.71 182.44 131.334C182.44 131.706 182.506 132.036 182.638 132.324C182.782 132.6 182.992 132.864 183.268 133.116C183.544 133.368 183.952 133.698 184.492 134.106C185.212 134.634 185.746 135.066 186.094 135.402C186.454 135.726 186.73 136.086 186.922 136.482C187.114 136.866 187.21 137.334 187.21 137.886C187.21 138.87 186.928 139.662 186.364 140.262C185.8 140.85 185.074 141.144 184.186 141.144ZM206.074 141.144C205.186 141.144 204.466 140.85 203.914 140.262C203.362 139.674 203.086 138.906 203.086 137.958V137.544C203.086 137.424 203.146 137.364 203.266 137.364H204.148C204.268 137.364 204.328 137.424 204.328 137.544V137.904C204.328 138.54 204.49 139.056 204.814 139.452C205.138 139.836 205.558 140.028 206.074 140.028C206.578 140.028 206.998 139.842 207.334 139.47C207.67 139.098 207.838 138.606 207.838 137.994C207.838 137.586 207.754 137.238 207.586 136.95C207.43 136.65 207.22 136.392 206.956 136.176C206.704 135.948 206.278 135.606 205.678 135.15C205.078 134.706 204.604 134.328 204.256 134.016C203.908 133.692 203.62 133.308 203.392 132.864C203.176 132.42 203.068 131.898 203.068 131.298C203.068 130.362 203.338 129.624 203.878 129.084C204.418 128.532 205.12 128.256 205.984 128.256C206.896 128.256 207.622 128.556 208.162 129.156C208.714 129.744 208.99 130.53 208.99 131.514V131.964C208.99 132.084 208.93 132.144 208.81 132.144H207.91C207.79 132.144 207.73 132.084 207.73 131.964V131.496C207.73 130.86 207.568 130.35 207.244 129.966C206.932 129.57 206.512 129.372 205.984 129.372C205.504 129.372 205.108 129.546 204.796 129.894C204.484 130.23 204.328 130.71 204.328 131.334C204.328 131.706 204.394 132.036 204.526 132.324C204.67 132.6 204.88 132.864 205.156 133.116C205.432 133.368 205.84 133.698 206.38 134.106C207.1 134.634 207.634 135.066 207.982 135.402C208.342 135.726 208.618 136.086 208.81 136.482C209.002 136.866 209.098 137.334 209.098 137.886C209.098 138.87 208.816 139.662 208.252 140.262C207.688 140.85 206.962 141.144 206.074 141.144ZM231.097 129.336C231.097 129.456 231.037 129.516 230.917 129.516H226.741C226.693 129.516 226.669 129.54 226.669 129.588V134.052C226.669 134.1 226.693 134.124 226.741 134.124H229.369C229.489 134.124 229.549 134.184 229.549 134.304V135.078C229.549 135.198 229.489 135.258 229.369 135.258H226.741C226.693 135.258 226.669 135.282 226.669 135.33V139.812C226.669 139.86 226.693 139.884 226.741 139.884H230.917C231.037 139.884 231.097 139.944 231.097 140.064V140.82C231.097 140.94 231.037 141 230.917 141H225.571C225.451 141 225.391 140.94 225.391 140.82V128.58C225.391 128.46 225.451 128.4 225.571 128.4H230.917C231.037 128.4 231.097 128.46 231.097 128.58V129.336ZM249.956 141.144C249.068 141.144 248.348 140.85 247.796 140.262C247.244 139.674 246.968 138.906 246.968 137.958V137.544C246.968 137.424 247.028 137.364 247.148 137.364H248.03C248.15 137.364 248.21 137.424 248.21 137.544V137.904C248.21 138.54 248.372 139.056 248.696 139.452C249.02 139.836 249.44 140.028 249.956 140.028C250.46 140.028 250.88 139.842 251.216 139.47C251.552 139.098 251.72 138.606 251.72 137.994C251.72 137.586 251.636 137.238 251.468 136.95C251.312 136.65 251.102 136.392 250.838 136.176C250.586 135.948 250.16 135.606 249.56 135.15C248.96 134.706 248.486 134.328 248.138 134.016C247.79 133.692 247.502 133.308 247.274 132.864C247.058 132.42 246.95 131.898 246.95 131.298C246.95 130.362 247.22 129.624 247.76 129.084C248.3 128.532 249.002 128.256 249.866 128.256C250.778 128.256 251.504 128.556 252.044 129.156C252.596 129.744 252.872 130.53 252.872 131.514V131.964C252.872 132.084 252.812 132.144 252.692 132.144H251.792C251.672 132.144 251.612 132.084 251.612 131.964V131.496C251.612 130.86 251.45 130.35 251.126 129.966C250.814 129.57 250.394 129.372 249.866 129.372C249.386 129.372 248.99 129.546 248.678 129.894C248.366 130.23 248.21 130.71 248.21 131.334C248.21 131.706 248.276 132.036 248.408 132.324C248.552 132.6 248.762 132.864 249.038 133.116C249.314 133.368 249.722 133.698 250.262 134.106C250.982 134.634 251.516 135.066 251.864 135.402C252.224 135.726 252.5 136.086 252.692 136.482C252.884 136.866 252.98 137.334 252.98 137.886C252.98 138.87 252.698 139.662 252.134 140.262C251.57 140.85 250.844 141.144 249.956 141.144Z" fill="#232323"/>
<path d="M54.7264 63.16C54.8864 63.36 55.1264 63.46 55.4464 63.46H62.1664C62.6464 63.46 63.0064 63.28 63.2464 62.92L67.4464 57.28C67.5664 57.08 67.6264 56.9 67.6264 56.74C67.6264 56.38 67.3864 56.2 66.9064 56.2H58.8064C58.2864 56.2 57.9264 56.42 57.7264 56.86L54.7864 62.38C54.6264 62.66 54.6064 62.92 54.7264 63.16Z" fill="#232323"/>
<path d="M87.9121 107.56C90.4321 108.84 93.3321 109.48 96.6121 109.48C99.8921 109.48 102.772 108.88 105.252 107.68C107.772 106.44 109.712 104.72 111.072 102.52C112.472 100.32 113.172 97.78 113.172 94.9C113.172 94.54 112.872 94.34 112.272 94.3L102.792 93.82C102.512 93.78 102.292 93.82 102.132 93.94C101.972 94.06 101.892 94.24 101.892 94.48C101.892 96.08 101.412 97.38 100.452 98.38C99.4921 99.34 98.2121 99.82 96.6121 99.82C95.0121 99.82 93.7321 99.34 92.7721 98.38C91.8121 97.38 91.3321 96.08 91.3321 94.48V81.58C91.3321 79.94 91.8121 78.64 92.7721 77.68C93.7321 76.68 95.0121 76.18 96.6121 76.18C98.2121 76.18 99.4921 76.68 100.452 77.68C101.412 78.64 101.892 79.94 101.892 81.58C101.892 82.02 102.132 82.24 102.612 82.24H102.792L112.272 81.64C112.872 81.56 113.172 81.34 113.172 80.98C113.172 78.1 112.472 75.58 111.072 73.42C109.712 71.22 107.772 69.52 105.252 68.32C102.772 67.12 99.8921 66.52 96.6121 66.52C93.3321 66.52 90.4321 67.16 87.9121 68.44C85.4321 69.72 83.4921 71.52 82.0921 73.84C80.7321 76.16 80.0521 78.84 80.0521 81.88V94C80.0521 97.08 80.7321 99.8 82.0921 102.16C83.4921 104.48 85.4321 106.28 87.9121 107.56Z" fill="#232323"/>
<path d="M124.714 107.62C127.234 108.86 130.114 109.48 133.354 109.48C136.594 109.48 139.454 108.86 141.934 107.62C144.414 106.38 146.334 104.62 147.694 102.34C149.054 100.06 149.734 97.42 149.734 94.42V67.9C149.734 67.62 149.654 67.4 149.494 67.24C149.334 67.08 149.114 67 148.834 67H139.354C139.074 67 138.854 67.08 138.694 67.24C138.534 67.4 138.454 67.62 138.454 67.9V94.42C138.454 96.02 137.974 97.32 137.014 98.32C136.094 99.32 134.874 99.82 133.354 99.82C131.794 99.82 130.534 99.34 129.574 98.38C128.654 97.38 128.194 96.06 128.194 94.42V67.9C128.194 67.62 128.114 67.4 127.954 67.24C127.794 67.08 127.574 67 127.294 67H117.814C117.534 67 117.314 67.08 117.154 67.24C116.994 67.4 116.914 67.62 116.914 67.9V94.42C116.914 97.42 117.594 100.06 118.954 102.34C120.314 104.62 122.234 106.38 124.714 107.62Z" fill="#232323"/>
<path d="M154.426 108.76C154.586 108.92 154.806 109 155.086 109H184.306C184.586 109 184.806 108.92 184.966 108.76C185.126 108.6 185.206 108.38 185.206 108.1V100.24C185.206 99.96 185.126 99.74 184.966 99.58C184.806 99.42 184.586 99.34 184.306 99.34H165.766C165.566 99.34 165.466 99.24 165.466 99.04V67.9C165.466 67.62 165.386 67.4 165.226 67.24C165.066 67.08 164.846 67 164.566 67H155.086C154.806 67 154.586 67.08 154.426 67.24C154.266 67.4 154.186 67.62 154.186 67.9V108.1C154.186 108.38 154.266 108.6 154.426 108.76Z" fill="#232323"/>
<path d="M232.34 107.86C234.86 108.94 237.8 109.48 241.16 109.48C244.4 109.48 247.24 108.96 249.68 107.92C252.12 106.88 254.02 105.4 255.38 103.48C256.74 101.52 257.42 99.2 257.42 96.52C257.42 93.76 256.58 91.42 254.9 89.5C253.22 87.54 251.12 86.2 248.6 85.48C246.12 84.72 244.72 84.28 244.4 84.16C242.08 83.44 240.36 82.86 239.24 82.42C238.12 81.94 237.28 81.46 236.72 80.98C236.2 80.46 235.94 79.84 235.94 79.12C235.94 78.2 236.3 77.48 237.02 76.96C237.78 76.44 238.8 76.18 240.08 76.18C241.92 76.18 243.38 76.68 244.46 77.68C245.54 78.64 246.08 79.72 246.08 80.92V80.98C246.08 81.26 246.16 81.48 246.32 81.64C246.48 81.8 246.7 81.88 246.98 81.88H256.28C256.56 81.88 256.78 81.8 256.94 81.64C257.1 81.48 257.18 81.26 257.18 80.98V80.44C257.18 77.72 256.44 75.3 254.96 73.18C253.52 71.06 251.52 69.42 248.96 68.26C246.44 67.1 243.62 66.52 240.5 66.52C237.54 66.52 234.86 67.04 232.46 68.08C230.1 69.12 228.24 70.62 226.88 72.58C225.52 74.5 224.84 76.72 224.84 79.24C224.84 83.04 226.18 85.94 228.86 87.94C231.54 89.94 234.86 91.54 238.82 92.74L240.56 93.22C242.68 93.86 244.14 94.4 244.94 94.84C245.74 95.28 246.14 95.94 246.14 96.82C246.14 97.58 245.82 98.28 245.18 98.92C244.54 99.52 243.48 99.82 242 99.82C240.04 99.82 238.46 99.4 237.26 98.56C236.1 97.68 235.52 96.68 235.52 95.56V95.2C235.52 94.92 235.44 94.7 235.28 94.54C235.12 94.38 234.9 94.3 234.62 94.3H225.32C225.04 94.3 224.82 94.38 224.66 94.54C224.5 94.7 224.42 94.92 224.42 95.2V96.04C224.42 98.72 225.1 101.08 226.46 103.12C227.86 105.16 229.82 106.74 232.34 107.86Z" fill="#232323"/>
<path fillRule="evenodd" clipRule="evenodd" d="M59.5864 109.72C56.2664 109.72 53.3264 109.06 50.7664 107.74C48.2464 106.38 46.2864 104.5 44.8864 102.1C43.4864 99.66 42.7864 96.84 42.7864 93.64V82.36C42.7864 79.24 43.4864 76.48 44.8864 74.08C46.2864 71.68 48.2464 69.82 50.7664 68.5C53.3264 67.18 56.2664 66.52 59.5864 66.52C62.9464 66.52 65.8864 67.18 68.4064 68.5C70.9664 69.82 72.9464 71.68 74.3464 74.08C75.7464 76.48 76.4464 79.24 76.4464 82.36V93.64C76.4464 96.84 75.7464 99.66 74.3464 102.1C72.9464 104.5 70.9664 106.38 68.4064 107.74C65.8864 109.06 62.9464 109.72 59.5864 109.72ZM63.6064 98.44C62.6064 99.52 61.2664 100.06 59.5864 100.06C57.9464 100.06 56.6064 99.52 55.5664 98.44C54.5664 97.32 54.0664 95.84 54.0664 94V82.24C54.0664 80.4 54.5664 78.94 55.5664 77.86C56.6064 76.74 57.9464 76.18 59.5864 76.18C61.2664 76.18 62.6064 76.74 63.6064 77.86C64.6464 78.94 65.1664 80.4 65.1664 82.24V94C65.1664 95.84 64.6464 97.32 63.6064 98.44Z" fill="#232323"/>
<path fillRule="evenodd" clipRule="evenodd" d="M204.254 109.72C200.934 109.72 197.994 109.06 195.434 107.74C192.914 106.38 190.954 104.5 189.554 102.1C188.154 99.66 187.454 96.84 187.454 93.64V82.36C187.454 79.24 188.154 76.48 189.554 74.08C190.954 71.68 192.914 69.82 195.434 68.5C197.994 67.18 200.934 66.52 204.254 66.52C207.614 66.52 210.554 67.18 213.074 68.5C215.634 69.82 217.614 71.68 219.014 74.08C220.414 76.48 221.114 79.24 221.114 82.36V93.64C221.114 96.84 220.414 99.66 219.014 102.1C217.614 104.5 215.634 106.38 213.074 107.74C210.554 109.06 207.614 109.72 204.254 109.72ZM208.274 98.44C207.274 99.52 205.934 100.06 204.254 100.06C202.614 100.06 201.274 99.52 200.234 98.44C199.234 97.32 198.734 95.84 198.734 94V82.24C198.734 80.4 199.234 78.94 200.234 77.86C201.274 76.74 202.614 76.18 204.254 76.18C205.934 76.18 207.274 76.74 208.274 77.86C209.314 78.94 209.834 80.4 209.834 82.24V94C209.834 95.84 209.314 97.32 208.274 98.44Z" fill="#232323"/>
</svg>
